# xmcd
#
# Track frame offsets: 
#        150
#        15167
#        25595
#        40170
#        52192
#        67300
#        81940
#        95182
#        110379
#        119962
#        135405
#        149995
#
# Disc length: 2278 seconds
#
# Revision: 0
# Processed by: cddbd v1.4PL0 Copyright (c) Steve Scherf et al.
# Submitted via: ExactAudioCopy v0.90b2
#
DISCID=b408e40c
DTITLE=Major Dundee - Home Skies
DYEAR=2001
DGENRE=Country
TTITLE0=Leaving Home
TTITLE1=The Beat of Your Heart
TTITLE2=I Saw Elvis
TTITLE3=Good Loves Bad Loves
TTITLE4=Country Boy From Soho
TTITLE5=Ready to Rock and Roll
TTITLE6=Love Should Know
TTITLE7=Hot
TTITLE8=Big Trains
TTITLE9=Born a Baby
TTITLE10=Bring Back the Love
TTITLE11=The Song
EXTD=
EXTT0=
EXTT1=
EXTT2=
EXTT3=
EXTT4=
EXTT5=
EXTT6=
EXTT7=
EXTT8=
EXTT9=
EXTT10=
EXTT11=
PLAYORDER=
